<?xml version="1.0" standalone="no"?>
<!DOCTYPE svg PUBLIC "-//W3C//DTD SVG 20010904//EN"
 "http://www.w3.org/TR/2001/REC-SVG-20010904/DTD/svg10.dtd">
<svg version="1.0" xmlns="http://www.w3.org/2000/svg"
 width="743.000000pt" height="743.000000pt" viewBox="0 0 743.000000 743.000000"
 preserveAspectRatio="xMidYMid meet">
<metadata>
Created by potrace 1.14, written by Peter Selinger 2001-2017
</metadata>
<g transform="translate(0.000000,743.000000) scale(0.100000,-0.100000)"
fill="#000000" stroke="none">
<path d="M3485 7124 c-281 -28 -416 -50 -605 -98 -986 -250 -1813 -930 -2249
-1848 -166 -349 -262 -685 -313 -1098 -17 -138 -17 -602 0 -740 80 -647 298
-1194 675 -1695 369 -489 906 -897 1472 -1118 424 -165 786 -232 1255 -232
469 0 831 67 1255 232 566 221 1103 629 1472 1118 377 501 595 1048 675 1695
17 138 17 602 0 740 -51 413 -147 749 -313 1098 -336 708 -913 1285 -1621
1621 -338 161 -662 255 -1053 307 -104 14 -564 27 -650 18z m476 -184 c433
-34 818 -141 1209 -336 391 -196 721 -454 1009 -789 289 -336 510 -737 637
-1155 118 -386 164 -797 134 -1191 -68 -865 -466 -1651 -1125 -2218 -336 -289
-737 -510 -1155 -637 -698 -213 -1447 -186 -2125 77 -146 57 -415 192 -545
274 -269 170 -527 394 -739 640 -557 648 -836 1498 -771 2346 68 865 466 1651
1125 2218 647 556 1499 836 2346 771z"/>
<path d="M3473 6829 c-46 -13 -83 -62 -83 -109 0 -46 19 -67 98 -112 60 -34
92 -71 92 -104 0 -27 -36 -64 -62 -64 -36 0 -76 29 -89 65 -7 19 -19 35 -27
35 -12 0 -13 -11 -7 -57 4 -32 8 -59 10 -61 1 -2 19 -5 38 -9 57 -9 105 5 148
44 34 31 39 41 39 80 0 53 -21 77 -118 135 -85 52 -98 111 -28 129 35 10 59
-5 80 -48 22 -47 36 -41 36 17 0 45 -3 52 -26 60 -30 12 -58 11 -101 -1z"/>
<path d="M3759 6817 c-80 -54 -76 -117 14 -185 89 -68 97 -78 97 -115 0 -94
-123 -86 -149 9 -14 53 -31 40 -31 -24 0 -58 1 -60 31 -71 47 -16 88 -13 134
9 48 23 75 64 75 114 0 30 -7 41 -47 73 -96 77 -125 110 -121 140 2 17 12 32
28 40 34 17 81 -11 94 -55 15 -53 36 -40 36 22 0 47 -3 54 -22 60 -49 13 -105
6 -139 -17z"/>
<path d="M3210 6793 c-53 -8 -70 -14 -70 -23 0 -6 6 -10 13 -10 29 -1 38 -24
62 -175 l26 -159 -23 -17 c-12 -10 -20 -20 -17 -23 7 -7 142 15 153 25 5 5 -2
13 -17 18 -30 12 -31 13 -57 167 -24 145 -25 173 -5 180 8 4 15 10 15 15 0 9
-32 10 -80 2z"/>
<path d="M4243 6760 c-74 -45 -69 -96 22 -198 68 -76 77 -101 49 -140 -11 -15
-25 -22 -50 -22 -51 0 -75 28 -86 104 -2 11 -8 21 -15 23 -13 5 -38 -100 -28
-116 3 -6 29 -18 58 -27 42 -13 60 -14 93 -5 57 15 92 45 100 86 9 48 -2 72
-61 135 -62 65 -78 94 -70 120 8 27 41 43 71 36 25 -7 54 -52 54 -86 0 -11 5
-20 10 -20 14 0 30 44 30 80 0 23 -6 30 -31 39 -49 17 -110 13 -146 -9z"/>
<path d="M2996 6752 c-55 -16 -88 -42 -52 -42 27 0 19 -50 -18 -115 l-35 -60
-11 29 c-23 63 -29 106 -14 121 31 30 11 32 -76 8 -59 -16 -79 -33 -40 -33 29
0 43 -31 85 -183 36 -133 37 -138 20 -157 -28 -31 -11 -35 59 -14 64 19 83 36
46 42 -15 3 -25 20 -41 73 -12 39 -19 72 -17 74 2 3 46 -27 97 -66 l92 -71 49
12 c57 14 64 25 21 35 -34 7 -221 142 -221 160 0 14 82 143 105 165 25 23 32
41 18 39 -5 0 -35 -8 -67 -17z"/>
<path d="M4022 6677 c-20 -9 -23 -16 -18 -45 3 -19 7 -36 10 -39 2 -2 22 1 45
7 42 11 47 21 35 68 -7 24 -34 28 -72 9z"/>
<path d="M4650 6682 c-117 -15 -200 -110 -200 -229 0 -50 5 -66 29 -100 36
-49 84 -73 148 -73 50 0 143 26 143 39 0 5 -33 6 -72 4 -88 -5 -132 14 -161
70 -55 106 24 267 130 267 69 0 133 -53 133 -108 0 -34 18 -35 35 -2 23 44 16
71 -24 94 -39 22 -125 43 -161 38z"/>
<path d="M2560 6608 c-59 -29 -62 -32 -37 -36 21 -3 33 -14 52 -52 14 -27 25
-56 25 -64 0 -14 -119 -76 -146 -76 -8 0 -25 24 -38 53 -21 47 -22 54 -9 75 8
13 12 26 9 29 -9 10 -135 -51 -136 -65 0 -9 7 -11 19 -7 10 3 23 0 29 -7 13
-17 132 -278 132 -291 0 -6 -7 -19 -17 -29 -14 -16 -14 -18 0 -18 22 0 137 51
137 61 0 4 -12 9 -27 11 -21 2 -32 14 -54 58 -47 97 -48 93 29 128 38 18 75
32 84 32 9 0 27 -27 46 -72 26 -64 28 -75 16 -89 -33 -37 -11 -38 67 -3 60 27
75 44 39 44 -11 0 -26 10 -34 23 -20 30 -126 266 -126 280 0 6 7 19 17 29 25
28 -1 23 -77 -14z"/>
<path d="M4950 6575 c0 -3 6 -14 13 -26 10 -17 3 -38 -62 -164 -69 -137 -75
-145 -103 -145 -39 0 -29 -12 39 -49 72 -39 90 -40 67 -5 -17 24 -16 27 21 99
l39 73 78 -39 c43 -22 78 -42 78 -44 0 -3 -16 -37 -35 -75 -29 -58 -40 -70
-60 -70 -13 0 -26 -4 -29 -9 -7 -10 104 -71 129 -71 17 0 17 1 -1 21 -19 21
-18 22 57 168 66 128 78 146 102 149 15 2 27 7 27 11 0 10 -131 73 -138 66 -3
-3 0 -11 6 -17 7 -7 12 -20 12 -31 0 -22 -48 -107 -61 -107 -16 0 -149 70
-149 78 0 4 13 30 28 57 21 39 33 51 55 53 15 2 27 7 27 11 0 5 -27 22 -59 40
-56 29 -81 38 -81 26z"/>
<path d="M2125 6396 c-40 -18 -135 -103 -135 -119 0 -3 -5 -28 -10 -58 -24
-128 73 -259 193 -259 46 0 118 39 144 78 29 45 58 121 48 130 -4 4 -10 2 -12
-5 -13 -35 -67 -102 -96 -118 -42 -22 -117 -16 -156 12 -73 55 -109 158 -77
220 36 71 116 101 168 63 53 -39 60 5 10 63 -19 21 -17 22 -77 -7z"/>
<path d="M5379 6244 c-82 -25 -149 -110 -149 -189 0 -75 54 -153 125 -181 70
-26 172 -17 227 22 58 40 88 95 88 161 0 65 -11 95 -51 134 -66 65 -146 82
-240 53z m137 -25 c87 -42 110 -166 47 -264 -37 -59 -76 -80 -139 -72 -58 6
-97 43 -114 108 -24 90 29 206 110 238 37 14 49 13 96 -10z"/>
<path d="M1810 6187 c0 -14 -183 -178 -212 -189 -23 -9 -14 -29 31 -72 37 -36
47 -30 31 19 -11 33 -10 40 7 64 11 14 25 26 31 26 6 0 59 -56 117 -123 99
-115 106 -126 99 -155 -6 -30 -6 -31 12 -17 107 84 127 108 79 96 -26 -7 -50
12 -115 90 -14 16 -51 59 -82 96 -55 62 -57 66 -39 82 19 18 86 22 96 6 8 -13
35 -13 35 1 0 5 -13 24 -30 42 -16 18 -30 35 -30 40 0 4 -7 7 -15 7 -8 0 -15
-6 -15 -13z"/>
<path d="M3490 6095 c-400 -64 -776 -218 -962 -394 -60 -55 -53 -64 45 -54
158 16 220 7 380 -50 66 -24 100 -43 137 -77 28 -26 50 -51 50 -57 0 -10 -173
-113 -191 -113 -5 0 -33 12 -61 26 -85 43 -178 75 -263 90 -91 16 -185 18
-185 5 0 -5 33 -76 74 -158 64 -128 121 -275 140 -364 3 -15 0 -34 -9 -45 -8
-11 -15 -42 -15 -71 0 -41 5 -58 22 -75 l21 -21 -29 -51 c-27 -48 -29 -57 -26
-148 2 -92 0 -103 -32 -180 -90 -216 -196 -501 -196 -528 0 -69 47 -114 133
-128 41 -7 42 -8 45 -52 3 -34 11 -53 38 -82 19 -21 34 -40 34 -43 0 -3 -11
-28 -25 -55 -33 -64 -32 -74 9 -99 42 -27 50 -54 35 -136 -18 -105 22 -199
101 -240 34 -17 149 -41 295 -60 185 -25 204 -48 208 -247 3 -117 2 -126 -25
-178 -39 -77 -89 -132 -241 -263 -272 -236 -369 -345 -444 -503 -33 -69 -38
-88 -38 -151 0 -104 11 -113 107 -86 40 12 105 33 143 48 226 86 459 153 715
206 363 76 463 92 713 119 49 6 92 12 96 15 15 9 319 35 406 35 50 0 122 -8
160 -16 39 -9 85 -19 103 -21 l32 -5 0 70 c0 199 -104 515 -305 928 -90 184
-177 389 -200 468 -13 44 -16 78 -11 129 8 91 18 107 63 107 44 0 150 -56 193
-102 44 -47 113 -166 149 -256 31 -78 111 -394 111 -438 0 -42 87 -375 120
-459 67 -171 87 -205 122 -205 20 0 290 -64 322 -76 13 -5 16 1 16 28 0 18 -6
42 -14 53 -42 61 -104 250 -151 459 -19 87 -37 162 -40 165 -2 4 -11 56 -20
116 -20 138 -21 389 -1 630 17 198 34 318 101 675 45 238 56 465 30 630 -38
253 -196 563 -365 717 -74 67 -197 140 -283 167 -10 3 -25 23 -33 43 -30 71
-83 148 -123 176 -22 15 -80 42 -128 59 -85 30 -95 31 -280 35 -204 4 -205 4
-398 74 -76 27 -251 34 -375 14z m130 -45 c27 -19 108 -115 159 -190 29 -42
107 -205 117 -244 5 -22 4 -28 -7 -24 -8 3 -28 39 -46 81 -42 101 -92 171
-202 289 -50 53 -91 99 -91 102 0 13 44 5 70 -14z m130 10 c12 0 86 -102 124
-172 41 -74 106 -249 105 -281 0 -13 -6 -3 -14 23 -31 110 -115 261 -199 360
-57 67 -68 87 -40 76 9 -3 19 -6 24 -6z m-361 -36 c-9 -8 -68 -28 -130 -44
-181 -44 -350 -118 -477 -209 -58 -41 -77 -49 -125 -53 -31 -3 -57 -1 -57 3 0
29 271 169 436 225 89 30 319 92 349 93 18 1 18 0 4 -15z m183 -91 c100 -97
163 -181 197 -261 35 -85 21 -92 -31 -15 -77 112 -204 243 -308 315 -24 17
-25 18 -6 33 11 8 28 15 38 15 10 0 60 -39 110 -87z m356 54 c12 -13 33 -50
46 -83 35 -86 89 -272 83 -286 -3 -8 -6 -6 -6 5 -2 40 -65 202 -111 286 -28
49 -50 92 -50 95 0 13 18 5 38 -17z m-538 -70 c52 -37 197 -173 212 -200 5
-11 -32 18 -84 63 -51 45 -121 100 -155 123 -35 23 -63 45 -63 50 0 13 41 -3
90 -36z m780 -68 c11 -39 19 -74 16 -77 -3 -3 -6 0 -6 7 0 7 -16 49 -35 92
-39 90 -42 104 -16 72 11 -13 29 -55 41 -94z m94 0 c24 -83 30 -119 40 -244 3
-39 2 -53 -4 -40 -5 11 -9 35 -9 53 -1 42 -47 244 -67 290 -18 44 -18 60 1 42
8 -8 25 -54 39 -101z m82 55 c48 -108 66 -253 48 -366 -12 -72 -21 -37 -27
100 -4 109 -10 154 -31 221 -14 47 -26 88 -26 93 0 21 13 3 36 -48z m-271 -34
c48 -116 87 -260 77 -288 -9 -28 -20 -9 -25 46 -5 47 -56 218 -92 307 -5 14
-5 17 2 10 6 -5 23 -39 38 -75z m372 34 c48 -136 67 -258 52 -335 -6 -32 -16
-59 -20 -59 -5 0 -9 51 -9 114 0 93 -5 130 -26 202 -15 49 -29 97 -32 108 -10
37 21 10 35 -30z m-1198 -4 c31 -17 72 -44 91 -60 l35 -30 -55 32 c-31 18 -75
42 -98 52 -23 10 -42 23 -42 28 0 13 8 10 69 -22z m1305 -54 c33 -108 47 -242
34 -321 -11 -67 -22 -85 -39 -68 -8 8 -6 25 7 65 25 77 22 183 -10 291 -25 84
-31 117 -22 117 3 0 16 -38 30 -84z m-1415 18 c14 -12 -19 -1 -35 12 -18 14
-18 14 6 3 14 -6 27 -13 29 -15z m1523 -41 c29 -54 48 -133 48 -200 0 -54 -37
-220 -52 -229 -25 -16 -29 16 -12 85 13 56 16 96 11 179 -3 59 -10 118 -15
132 -32 86 -19 107 20 33z m-1537 -32 c47 -22 85 -42 85 -45 0 -2 -39 13 -86
35 -47 22 -102 44 -122 49 l-37 10 37 -4 c20 -3 76 -23 123 -45z m165 -6 c0
-3 -18 4 -40 15 -22 11 -40 23 -40 25 0 3 18 -4 40 -15 22 -11 40 -23 40 -25z
m-306 -15 c20 -8 20 -9 1 -8 -11 0 -42 6 -70 14 l-50 13 49 -5 c27 -3 58 -9
70 -14z m37 -92 c69 -28 189 -104 189 -120 0 -6 -12 0 -27 14 -28 27 -186 108
-209 108 -7 0 -16 5 -19 10 -9 15 7 12 66 -12z m269 -74 c14 -13 33 -37 43
-54 15 -24 15 -30 4 -30 -8 0 -20 14 -27 30 -7 17 -34 49 -59 72 -32 28 -37
36 -16 23 17 -10 41 -28 55 -41z m129 -26 c22 -35 5 -30 -24 7 -21 28 -23 34
-8 24 11 -6 26 -21 32 -31z m1428 20 c55 -24 177 -111 225 -162 122 -126 252
-365 288 -531 55 -247 42 -518 -39 -825 -17 -63 -44 -171 -61 -240 -17 -69
-35 -138 -40 -155 -8 -29 -8 -29 -15 -7 -17 51 -79 170 -115 218 -46 62 -136
124 -179 124 -41 0 -45 11 -17 61 77 140 135 360 136 510 0 130 -38 295 -100
434 -33 74 -124 214 -180 278 l-41 46 17 32 c26 51 64 170 64 201 0 31 13 35
57 16z m-1329 -16 c6 -18 -15 -14 -22 4 -4 10 -1 14 6 12 6 -2 14 -10 16 -16z
m532 -47 c100 -21 381 -113 450 -147 82 -41 227 -172 282 -253 91 -137 122
-218 154 -400 49 -278 -40 -647 -197 -814 -50 -53 -49 -42 1 34 45 67 111 228
141 343 26 100 36 296 20 397 -16 98 -71 260 -116 342 -42 77 -125 183 -185
237 -48 44 -268 152 -370 184 -194 59 -554 68 -790 21 -99 -20 -116 -22 -105
-11 13 12 123 47 200 63 148 30 379 32 515 4z m-20 -89 c258 -51 418 -132 566
-288 76 -80 131 -180 184 -338 66 -195 73 -390 20 -574 -53 -188 -118 -314
-221 -431 -35 -39 -103 -123 -125 -154 -2 -2 -26 21 -54 52 -27 30 -86 79
-130 108 -44 30 -80 57 -80 60 0 4 43 7 95 8 133 2 212 33 301 117 110 105
162 210 190 382 17 109 17 118 0 225 -16 97 -25 125 -76 227 -73 146 -110 201
-180 268 -187 182 -447 283 -725 284 -159 0 -297 -29 -556 -118 l-105 -37 -43
28 -43 29 24 18 c13 9 77 35 143 57 106 34 177 53 345 90 68 15 370 6 470 -13z
m-871 -53 c-63 -24 -121 -47 -129 -50 -36 -13 32 28 86 53 75 34 136 53 148
46 5 -2 -43 -25 -105 -49z m-561 -40 c6 -15 12 -32 12 -38 0 -6 14 -46 30 -89
17 -44 29 -84 27 -89 -2 -8 -40 74 -104 231 -10 25 22 11 35 -15z m297 -57
c142 -70 247 -149 366 -278 123 -131 165 -182 212 -259 47 -76 34 -70 -19 8
-153 227 -362 412 -598 530 -72 35 -117 62 -101 59 17 -4 80 -31 140 -60z
m1103 5 c132 -38 270 -118 374 -216 183 -174 289 -362 310 -552 9 -86 8 -100
-16 -192 -35 -138 -75 -218 -145 -290 -86 -89 -149 -116 -271 -116 -52 0 -124
4 -159 9 -84 12 -78 4 63 -89 110 -72 218 -166 250 -216 14 -22 15 -34 7 -70
-15 -62 -13 -144 4 -214 26 -107 25 -110 -52 -133 -97 -30 -296 -44 -366 -27
-32 8 -34 22 -42 255 -3 91 -11 248 -16 350 -14 229 -14 231 14 282 15 29 23
63 24 106 2 57 5 67 37 102 103 114 123 259 43 309 -17 10 -44 22 -58 26 -33
8 -100 -9 -129 -33 -21 -17 -22 -21 -10 -56 25 -77 -21 -144 -109 -157 -22 -4
-26 3 -51 76 -38 109 -87 211 -162 331 -77 124 -115 171 -237 297 -92 95 -95
99 -76 113 74 56 162 87 335 119 111 21 344 13 438 -14z m-1260 -87 c4 -47
-14 -36 -24 15 -6 26 -4 33 7 29 8 -3 15 -21 17 -44z m292 -60 c50 -34 239
-197 239 -208 1 -4 -24 15 -55 44 -56 50 -223 175 -290 216 -18 11 -37 24 -41
29 -10 11 101 -50 147 -81z m-175 -37 c1 -48 -1 -87 -4 -87 -19 1 -27 22 -27
75 -1 34 -4 73 -8 88 -6 24 -4 26 15 18 20 -7 22 -15 24 -94z m-62 39 c6 -16
-2 -28 -14 -20 -12 7 -11 34 0 34 5 0 11 -6 14 -14z m174 -28 c14 -18 4 -148
-11 -148 -24 0 -33 22 -29 68 8 91 17 109 40 80z m-61 -23 c4 -14 3 -29 0 -33
-9 -8 -26 18 -26 41 0 26 19 20 26 -8z m171 -53 c16 -10 5 -142 -13 -142 -21
0 -24 14 -17 84 6 67 9 72 30 58z m-57 -27 c0 -14 -4 -25 -10 -25 -5 0 -10 11
-10 25 0 14 5 25 10 25 6 0 10 -11 10 -25z m-180 -37 c30 -12 71 -31 90 -43
19 -12 42 -24 50 -28 25 -12 270 -195 270 -203 0 -3 -140 86 -230 146 -69 46
-232 120 -265 120 -22 0 -45 17 -45 33 0 13 65 0 130 -25z m348 -20 c11 -14 4
-148 -7 -148 -19 0 -31 29 -31 76 0 77 13 101 38 72z m-58 -29 c0 -10 -4 -19
-10 -19 -5 0 -10 12 -10 26 0 14 4 23 10 19 6 -3 10 -15 10 -26z m-338 -18
c114 -44 120 -49 92 -72 -8 -7 -22 -25 -30 -41 -19 -37 -32 -36 -26 2 4 29
-10 41 -23 20 -3 -5 -10 -10 -16 -10 -12 0 -12 57 1 65 14 9 12 25 -3 25 -19
0 -53 -39 -63 -72 -11 -35 -25 -37 -42 -7 -13 25 -8 64 10 86 12 15 67 17 100
4z m558 -67 c0 -3 -7 -1 -15 6 -8 7 -15 17 -15 22 0 5 7 3 15 -6 8 -8 15 -18
15 -22z m-110 1 c0 -8 -4 -15 -10 -15 -5 0 -10 7 -10 15 0 8 5 15 10 15 6 0
10 -7 10 -15z m52 -51 c-4 -65 -7 -73 -23 -57 -14 14 -1 125 15 120 7 -3 10
-25 8 -63z m-317 32 c18 -13 19 -16 4 -33 -9 -10 -20 -28 -23 -40 -11 -34 -30
-28 -42 13 -10 31 -9 38 9 55 25 23 28 23 52 5z m89 -52 c21 -8 20 -24 -3 -51
-24 -29 -31 -29 -31 1 0 13 -6 27 -12 29 -10 4 -9 8 2 16 18 12 23 13 44 5z
m319 -28 c10 -26 -5 -86 -21 -86 -11 0 -13 8 -8 38 3 20 6 43 6 50 0 17 17 15
23 -2z m-228 -30 c19 -14 19 -15 -5 -34 -14 -11 -25 -20 -26 -19 -1 1 -4 17
-7 35 -7 36 6 42 38 18z m-274 -32 c19 -13 49 -24 65 -24 17 0 34 -4 39 -9 6
-5 26 -14 46 -20 19 -6 55 -31 79 -56 24 -25 49 -45 55 -45 11 0 268 -251 312
-304 16 -19 31 -26 56 -26 l34 0 5 -63 c3 -35 13 -78 22 -96 15 -27 16 -40 6
-79 -34 -142 -15 -789 29 -1017 20 -100 34 -125 72 -125 31 0 49 -40 49 -108
0 -65 16 -116 50 -159 29 -38 40 -87 27 -123 -13 -35 -3 -49 23 -32 14 8 20 8
22 0 3 -7 12 -9 22 -5 15 6 17 15 11 64 l-6 58 17 -38 c18 -41 44 -50 44 -14
1 21 2 20 16 -5 15 -29 34 -37 34 -15 0 7 -9 38 -20 70 -14 39 -20 81 -20 139
1 107 16 84 25 -37 5 -57 14 -106 27 -133 22 -47 63 -75 77 -53 6 10 10 10 16
1 4 -6 13 -9 21 -6 8 3 24 -4 36 -16 14 -14 18 -23 10 -26 -19 -6 -14 -18 8
-19 14 -1 20 4 20 18 0 10 5 19 10 19 6 0 10 -4 10 -10 0 -5 5 -10 11 -10 7 0
9 9 5 23 -17 62 -16 69 5 29 23 -46 46 -63 58 -43 6 9 11 8 21 -4 7 -8 16 -15
21 -15 18 0 8 40 -22 88 -17 28 -33 69 -35 93 -4 41 -3 40 17 -21 12 -36 30
-77 40 -92 11 -14 22 -40 25 -57 8 -41 24 -40 25 2 2 30 2 30 6 5 3 -16 11
-28 19 -28 12 0 14 10 10 48 -5 45 -5 46 5 12 20 -64 23 -65 29 -10 5 52 5 53
13 21 4 -18 7 -44 7 -57 0 -13 5 -24 10 -24 10 0 13 25 11 85 -1 30 -1 30 10
5 5 -14 8 -32 6 -41 -6 -22 8 -43 22 -35 8 5 9 24 5 58 -8 59 11 61 22 3 6
-35 24 -58 24 -33 0 8 5 6 11 -5 6 -10 15 -14 22 -10 7 4 17 8 22 8 6 0 10 29
9 68 -1 64 7 85 20 51 3 -9 6 -31 6 -50 0 -46 29 -48 31 -1 l2 32 4 -30 c7
-55 13 -75 24 -75 11 0 9 47 -6 155 l-6 40 21 -45 c58 -120 145 -392 156 -487
8 -67 4 -67 -107 -7 -115 62 -136 70 -274 107 -118 31 -124 32 -345 32 -143 0
-245 -5 -280 -12 -30 -7 -110 -24 -178 -39 -68 -14 -208 -54 -310 -89 -249
-84 -404 -153 -577 -255 -44 -26 -105 -62 -136 -80 -31 -18 -71 -46 -89 -63
-17 -16 -34 -26 -38 -22 -11 11 77 172 139 255 52 69 190 205 314 310 112 95
206 193 230 240 24 47 25 58 25 213 0 189 -13 251 -63 302 -39 40 -41 40 -202
60 -206 26 -276 47 -319 94 -21 23 -24 62 -11 199 l8 94 56 24 c82 36 131 90
131 143 0 27 -79 50 -198 59 l-87 7 -3 63 c-3 72 11 87 60 59 42 -24 86 -21
125 9 49 37 66 76 53 123 -11 41 -28 60 -77 85 -45 22 -98 20 -167 -9 l-58
-24 6 52 c10 75 64 238 111 331 l40 80 76 -2 c89 -4 165 -22 215 -51 58 -34
105 -21 69 19 -45 50 -191 81 -292 62 l-53 -9 23 41 c15 27 30 42 46 44 24 4
24 3 8 -22 -24 -36 -2 -45 32 -12 15 14 32 26 39 26 35 0 143 -48 183 -81 50
-42 82 -48 117 -23 24 16 21 34 -5 34 -9 0 -39 17 -67 39 -28 21 -70 48 -94
60 -46 24 -194 46 -216 34 -20 -11 -79 -90 -104 -138 -11 -22 -28 -49 -36 -60
-15 -19 -16 -19 -6 8 5 16 15 38 22 50 7 12 15 72 18 132 5 102 7 113 34 148
29 38 29 38 85 32 34 -4 70 -17 92 -31z m349 -24 c13 -9 11 -14 -13 -35 -37
-33 -54 -32 -28 1 11 15 18 30 15 35 -7 12 7 11 26 -1z m233 -12 c2 -7 2 -28
0 -46 -7 -46 -30 -25 -25 23 4 35 16 46 25 23z m-163 -43 c8 -10 10 -19 4 -25
-12 -12 -54 -1 -54 14 0 29 30 35 50 11z m84 -64 c16 -18 16 -20 -16 -44 -32
-25 -54 -29 -30 -5 20 20 15 40 -8 33 -22 -7 -26 5 -8 23 17 17 42 15 62 -7z
m146 -5 c0 -14 -4 -28 -10 -31 -6 -4 -10 7 -10 24 0 17 5 31 10 31 6 0 10 -11
10 -24z m453 9 c20 -8 43 -25 51 -37 26 -37 18 -41 -12 -6 -36 39 -57 33 -71
-20 -13 -46 -61 -116 -92 -132 -34 -19 -35 -2 -2 33 39 41 49 61 58 117 11 68
12 69 68 45z m-528 -66 c7 -10 -21 -49 -36 -49 -6 0 -6 36 0 58 2 7 31 0 36
-9z m143 -44 c18 -40 14 -50 -8 -22 -11 14 -20 30 -20 36 0 20 17 11 28 -14z
m-75 -23 c15 -16 14 -20 -19 -46 -38 -30 -58 -28 -31 2 10 10 17 28 17 40 0
27 11 28 33 4z m84 -84 c29 -27 29 -42 -2 -62 -50 -33 -93 -12 -56 28 12 12
21 30 21 39 0 23 9 21 37 -5z m284 -38 c-25 -21 -51 -26 -51 -10 0 13 31 29
55 29 19 0 19 -1 -4 -19z m-203 -17 c-55 -59 -66 -104 -44 -178 4 -11 0 -6 -8
10 -29 58 -17 127 30 170 37 34 54 32 22 -2z m52 -33 c0 -5 -11 -25 -25 -45
l-24 -37 -7 28 c-6 21 -2 31 16 46 24 20 40 23 40 8z m83 -97 c-9 -27 -34 -53
-51 -53 -9 0 -5 11 15 34 31 38 46 45 36 19z m75 -23 c5 -49 -14 -77 -61 -89
-23 -5 -43 -9 -44 -7 -2 2 10 18 26 35 16 17 35 48 41 67 14 43 34 40 38 -6z
m-1377 -96 c-25 -102 -36 -174 -24 -174 4 0 24 11 43 23 42 28 93 47 129 47
59 0 130 -75 116 -121 -4 -11 -17 -25 -30 -31 -19 -8 -29 -6 -53 11 -38 27
-140 29 -182 4 -26 -15 -30 -15 -53 0 -36 24 -41 60 -17 125 12 31 25 61 29
67 4 5 18 38 31 72 13 34 26 61 28 59 2 -2 -6 -39 -17 -82z m1353 -211 c4 -81
13 -265 20 -408 7 -143 9 -264 5 -269 -19 -22 -29 58 -30 237 0 106 -6 273
-13 372 -7 99 -10 190 -8 202 10 53 19 4 26 -134z m1093 95 c56 -42 136 -157
167 -238 16 -45 16 -45 -3 -21 -10 14 -33 53 -51 87 -37 73 -106 141 -179 178
-28 15 -51 31 -51 37 0 20 64 -3 117 -43z m-1177 -203 c17 -334 37 -622 44
-634 4 -6 1 -11 -8 -11 -8 0 -17 4 -20 9 -22 34 -44 522 -36 791 3 120 8 86
20 -155z m1150 99 c41 -37 98 -121 144 -211 38 -77 32 -79 -10 -3 -73 133
-172 239 -253 273 -17 7 -28 16 -25 20 10 10 101 -40 144 -79z m-1281 -96 c-2
-177 18 -599 32 -694 6 -39 9 -79 7 -90 -8 -39 -37 135 -42 261 -3 72 -10 195
-16 275 -6 93 -6 188 0 260 5 63 10 118 10 123 0 4 2 7 5 7 3 0 5 -64 4 -142z
m1151 82 c53 -27 144 -126 194 -210 61 -102 143 -367 176 -565 7 -38 23 -113
35 -165 104 -423 115 -464 161 -598 48 -140 38 -153 -13 -16 -58 157 -128 407
-158 569 -78 421 -157 659 -265 806 -79 106 -139 155 -225 184 l-20 7 20 8
c23 10 46 5 95 -20z m-75 -79 c99 -45 218 -219 296 -433 33 -93 92 -326 109
-433 24 -151 126 -527 171 -633 20 -46 19 -58 -3 -49 -15 5 -62 132 -83 223
-7 33 -28 115 -45 184 -17 69 -48 213 -70 320 -47 242 -94 389 -175 550 -78
156 -124 209 -218 255 -51 24 -65 35 -47 35 14 0 43 -9 65 -19z m-56 -71 c146
-67 294 -362 375 -750 41 -195 93 -418 131 -555 28 -104 31 -124 9 -75 -60
135 -143 420 -158 546 -9 71 -71 340 -97 416 -73 222 -191 370 -334 420 l-50
17 40 0 c22 1 60 -8 84 -19z m-1882 -95 c30 -20 29 -35 -4 -68 -47 -44 -133
-72 -148 -47 -6 10 12 20 82 41 53 15 85 46 63 59 -8 6 -31 10 -51 10 -22 0
-42 7 -50 17 -13 15 -10 16 35 10 27 -4 60 -14 73 -22z m-97 -45 c-20 -13 -43
-13 -35 0 3 6 16 10 28 10 18 0 19 -2 7 -10z m2484 -183 c29 -105 30 -110 17
-103 -4 3 -14 32 -20 65 -6 33 -23 92 -36 132 -14 40 -25 75 -24 78 2 17 41
-89 63 -172z m-1430 -302 c4 -20 3 -25 -3 -15 -5 8 -12 49 -15 90 -5 74 -5 74
4 15 5 -33 12 -73 14 -90z m681 70 c-17 -7 -48 -16 -70 -19 -46 -7 -31 2 35
20 59 16 73 16 35 -1z m-122 -32 c-7 -2 -19 -2 -25 0 -7 3 -2 5 12 5 14 0 19
-2 13 -5z m-78 -14 c-22 -4 -74 -7 -115 -7 l-75 2 80 6 c44 3 96 7 115 7 l35
1 -40 -9z m-355 -160 c36 -7 29 -7 -31 -4 -42 2 -87 9 -100 14 -26 11 46 6
131 -10z m753 -184 c3 -55 2 -91 -3 -80 -11 30 -22 213 -12 195 5 -8 12 -60
15 -115z m-80 -10 c4 -49 11 -105 16 -123 5 -18 6 -30 1 -27 -4 3 -13 26 -18
52 -14 61 -24 235 -13 208 4 -11 11 -60 14 -110z m-42 3 c4 -51 10 -106 13
-123 l6 -30 -14 30 c-8 17 -17 59 -20 95 -4 36 -9 83 -12 105 -5 32 -4 38 7
28 7 -7 15 -52 20 -105z m-251 60 c11 -24 19 -50 19 -58 0 -17 -48 69 -49 88
0 23 11 12 30 -30z m199 -6 c13 -49 25 -199 16 -190 -4 3 -13 51 -20 105 -7
54 -16 107 -21 117 -5 13 -4 17 4 12 6 -4 16 -24 21 -44z m134 -57 c2 -54 0
-89 -4 -79 -9 22 -12 190 -4 182 3 -3 7 -49 8 -103z m-419 40 c6 -39 6 -39 -8
-15 -9 14 -15 36 -16 50 0 36 17 12 24 -35z m36 36 c0 -11 3 -28 6 -38 3 -10
-2 -7 -10 7 -18 29 -20 50 -6 50 6 0 10 -9 10 -19z m225 -131 c3 -36 8 -76 10
-90 4 -20 1 -18 -14 10 -10 19 -22 62 -25 95 -4 33 -9 76 -12 95 l-4 35 19
-40 c11 -22 23 -69 26 -105z m-358 32 l2 -77 -9 55 c-20 116 -20 124 -7 111 6
-6 13 -45 14 -89z m292 35 c15 -72 29 -167 25 -167 -11 0 -25 49 -35 117 -5
43 -13 86 -16 97 -3 11 -1 16 5 12 6 -3 15 -30 21 -59z m-428 -49 c4 -51 10
-109 14 -128 l6 -35 -17 30 c-13 22 -19 59 -22 135 -5 128 8 126 19 -2z m390
2 c19 -111 20 -126 9 -108 -12 20 -40 158 -39 191 0 21 1 20 10 -3 6 -14 15
-50 20 -80z m370 -16 c14 -75 6 -89 -20 -34 -12 27 -20 65 -20 95 l0 50 15
-28 c8 -15 19 -52 25 -83z m-656 -2 c3 -37 13 -86 22 -110 19 -54 11 -65 -16
-21 -23 37 -27 59 -35 164 -5 61 -3 68 9 52 7 -11 16 -49 20 -85z m-158 56
c-3 -8 -6 -5 -6 6 -1 11 2 17 5 13 3 -3 4 -12 1 -19z m-97 -12 c0 -7 9 -25 21
-40 21 -26 11 -38 -10 -12 -16 19 -33 78 -20 71 5 -4 9 -12 9 -19z m70 -18 c0
-19 -2 -20 -10 -8 -13 19 -13 30 0 30 6 0 10 -10 10 -22z m278 -93 l0 -40 -13
30 c-8 17 -14 50 -14 75 l1 45 13 -35 c7 -19 13 -53 13 -75z m79 13 c-2 -13
-4 -3 -4 22 0 25 2 35 4 23 2 -13 2 -33 0 -45z m-27 -22 c0 -55 -18 -34 -26
29 -5 47 -4 49 10 31 9 -11 16 -38 16 -60z m67 27 c-3 -10 -5 -4 -5 12 0 17 2
24 5 18 2 -7 2 -21 0 -30z m-358 -38 l0 -20 -9 20 c-5 11 -9 29 -9 40 l0 20 9
-20 c5 -11 9 -29 9 -40z m188 13 c-3 -8 -6 -5 -6 6 -1 11 2 17 5 13 3 -3 4
-12 1 -19z m180 -60 c-3 -8 -6 -5 -6 6 -1 11 2 17 5 13 3 -3 4 -12 1 -19z
m-387 -33 c0 -11 -5 -27 -10 -35 -7 -11 -10 -1 -10 35 0 36 3 46 10 35 5 -8
10 -24 10 -35z m347 23 c-3 -8 -6 -5 -6 6 -1 11 2 17 5 13 3 -3 4 -12 1 -19z
m410 -10 c-3 -7 -5 -2 -5 12 0 14 2 19 5 13 2 -7 2 -19 0 -25z m-109 -443 c64
-9 133 -20 152 -24 l35 -8 -45 -6 c-25 -3 -155 -11 -290 -17 -246 -11 -331
-22 -642 -85 -206 -41 -338 -71 -453 -103 -61 -16 -123 -32 -140 -36 l-30 -6
35 20 c48 27 371 130 560 179 366 94 581 117 818 86z"/>
<path d="M2793 4364 c-20 -9 -15 -24 6 -24 10 0 29 -8 41 -18 21 -17 22 -20 7
-67 -8 -28 -12 -56 -10 -62 3 -8 25 -13 59 -13 59 0 133 31 169 70 16 18 17
23 5 30 -8 6 -25 10 -37 10 -12 0 -52 16 -89 35 -66 34 -126 50 -151 39z m169
-105 c17 -9 18 -13 7 -20 -26 -17 -59 -10 -59 11 0 22 20 26 52 9z"/>
<path d="M5711 5898 c-118 -58 -145 -214 -53 -304 58 -56 88 -69 168 -68 58 0
78 4 117 27 62 36 97 96 97 165 0 86 -35 143 -112 183 -53 27 -159 26 -217 -3z
m221 -37 c54 -61 57 -146 6 -229 -64 -105 -203 -110 -249 -9 -34 75 -22 147
36 216 59 69 155 80 207 22z"/>
<path d="M1465 5836 c-51 -22 -113 -101 -121 -153 -16 -110 16 -195 95 -244
133 -85 301 18 301 184 0 155 -147 269 -275 213z m153 -85 c157 -80 116 -271
-58 -273 -99 0 -188 69 -197 155 -12 116 130 182 255 118z"/>
<path d="M6162 5608 c3 -15 2 -31 -1 -36 -14 -20 -253 -182 -269 -182 -10 0
-23 5 -30 12 -9 9 -12 9 -12 -2 0 -8 27 -53 60 -100 33 -47 60 -93 60 -102 0
-24 7 -23 74 8 70 32 73 48 7 39 -47 -6 -52 -5 -88 29 -38 35 -38 35 -18 55
36 35 249 181 265 181 9 0 21 -5 28 -12 6 -6 15 -9 18 -5 8 8 -48 97 -78 123
-21 19 -21 19 -16 -8z"/>
<path d="M1146 5449 c-46 -78 -48 -93 -6 -66 17 10 28 8 75 -18 30 -16 55 -31
55 -34 0 -10 -86 -151 -92 -151 -4 0 -30 14 -58 31 -42 26 -50 35 -50 61 0 26
-2 29 -15 18 -20 -16 -79 -120 -72 -126 3 -3 15 1 26 8 24 15 30 12 204 -94
78 -48 97 -64 97 -83 0 -44 16 -34 54 31 35 60 42 94 14 66 -7 -7 -18 -12 -26
-12 -16 0 -142 72 -142 82 0 13 82 148 90 148 5 0 38 -19 74 -41 51 -32 66
-47 66 -65 0 -39 16 -28 55 37 34 55 41 89 13 61 -7 -7 -18 -12 -26 -12 -21 0
-282 159 -283 173 -1 7 -1 20 0 30 4 33 -17 16 -53 -44z"/>
<path d="M6233 5263 c-30 -6 -45 -27 -41 -60 3 -25 6 -28 41 -27 51 2 63 15
51 55 -10 35 -16 39 -51 32z"/>
<path d="M6468 5118 c-2 -17 -18 -26 -73 -45 -87 -29 -220 -57 -243 -50 -9 3
-25 8 -34 12 -24 10 -23 -7 4 -72 23 -55 44 -69 50 -31 2 14 18 31 43 45 42
23 203 78 210 71 2 -2 -52 -60 -120 -128 -69 -69 -125 -128 -125 -132 0 -5 39
-8 88 -8 113 0 252 -11 252 -20 0 -4 -50 -33 -111 -64 -104 -55 -111 -57 -129
-41 -11 10 -20 12 -24 6 -9 -14 51 -144 63 -136 6 3 8 12 5 20 -8 20 22 42
154 112 110 59 162 76 162 53 0 -5 7 -10 15 -10 13 0 13 5 -2 43 -9 23 -20 46
-24 51 -5 5 -81 8 -174 7 -91 -1 -165 1 -165 6 0 4 52 60 117 125 l116 117
-17 45 c-19 50 -33 59 -38 24z"/>
<path d="M1041 5005 c-30 -14 -33 -18 -27 -47 8 -41 8 -41 55 -33 45 7 51 17
39 63 -10 36 -18 38 -67 17z"/>
<path d="M846 4892 c3 -9 -11 -59 -30 -111 -46 -119 -47 -143 -5 -105 17 15
26 14 121 -21 221 -81 208 -74 208 -101 0 -47 18 -23 50 69 18 50 39 102 47
115 17 28 14 34 -43 66 -73 41 -87 30 -33 -24 28 -28 31 -36 26 -76 -2 -25 -9
-50 -14 -55 -8 -8 -122 27 -155 47 -4 2 0 23 8 46 18 52 18 68 -1 68 -8 0 -15
-6 -15 -14 0 -7 -9 -25 -21 -40 -24 -31 -73 -35 -119 -11 -35 18 -37 29 -10
73 17 27 25 32 60 32 56 0 52 24 -7 44 -60 20 -72 20 -67 -2z"/>
<path d="M735 4533 c-4 -21 -10 -52 -15 -70 -4 -17 -5 -34 -2 -37 11 -11 22
-6 22 10 0 15 9 16 65 11 36 -4 70 -9 74 -12 9 -5 -20 -160 -33 -172 -4 -4
-32 0 -64 8 -41 10 -60 20 -67 37 -5 12 -13 22 -16 22 -4 0 -12 -27 -18 -61
-7 -34 -15 -67 -18 -75 -3 -8 1 -14 10 -14 8 0 17 7 21 15 3 8 16 15 29 15 30
0 291 -55 306 -64 6 -4 11 -16 11 -27 0 -26 18 -24 25 4 29 130 29 143 -5 112
-18 -17 -26 -17 -89 -5 -38 7 -74 16 -80 20 -8 4 -6 31 6 88 19 93 18 92 115
70 62 -13 78 -24 78 -49 0 -43 20 -14 34 52 18 78 13 105 -14 69 l-17 -22
-152 31 c-84 17 -156 33 -162 36 -5 4 -9 15 -9 26 0 35 -29 21 -35 -18z"/>
<path d="M6680 4545 c-5 -14 -12 -25 -15 -25 -3 0 -74 -14 -157 -31 l-152 -31
-18 22 c-10 13 -21 20 -24 17 -8 -7 32 -202 47 -230 46 -86 119 -131 214 -132
112 0 185 55 185 141 0 51 -51 294 -62 294 -5 0 -13 -11 -18 -25z m45 -178
c15 -98 -57 -166 -183 -174 -74 -5 -116 13 -148 62 -18 28 -23 120 -7 136 5 5
72 22 149 38 l139 29 22 -24 c12 -13 25 -43 28 -67z"/>
<path d="M643 3971 c-1 -80 -7 -150 -13 -162 -7 -11 -10 -22 -8 -24 2 -1 29
-6 61 -9 67 -9 76 6 24 39 -35 22 -57 69 -41 85 13 13 323 -7 341 -22 7 -6 13
-17 13 -24 0 -22 17 -16 24 9 7 27 8 127 1 127 -3 0 -14 -9 -26 -21 -17 -17
-29 -20 -67 -15 -26 3 -100 8 -164 12 -114 6 -118 7 -118 29 0 33 37 75 66 75
15 0 24 6 24 15 0 9 -9 15 -22 15 -13 0 -39 3 -58 6 l-35 6 -2 -141z"/>
<path d="M6520 4047 c-67 -23 -107 -66 -122 -129 -12 -56 2 -108 48 -170 44
-61 77 -67 37 -7 -38 58 -43 132 -11 178 31 47 76 71 140 77 105 10 184 -60
175 -154 -5 -45 -34 -87 -69 -98 -37 -11 -17 -25 34 -22 l53 3 9 48 c26 144
-67 272 -206 282 -29 3 -69 -1 -88 -8z"/>
<path d="M808 3709 c-21 -12 -25 -77 -5 -84 6 -3 26 -1 42 3 27 8 30 13 30 48
0 34 -3 39 -25 41 -14 2 -33 -2 -42 -8z"/>
<path d="M6505 3633 c-59 -14 -124 -101 -125 -165 0 -57 66 -195 86 -176 3 4
-3 31 -16 60 -25 59 -23 115 7 157 25 35 99 71 143 71 52 0 137 -45 157 -83
35 -69 11 -146 -55 -177 -39 -19 -42 -40 -4 -40 15 0 37 -3 49 -6 19 -5 24 0
37 47 33 111 12 197 -64 262 -59 51 -137 69 -215 50z"/>
<path d="M792 3560 c-86 -20 -144 -96 -143 -185 1 -133 118 -235 253 -223 122
12 194 130 158 259 -15 54 -91 126 -153 144 -55 16 -66 17 -115 5z m194 -83
c92 -84 27 -230 -119 -269 -63 -17 -122 3 -154 51 -72 107 34 250 185 251 45
0 57 -4 88 -33z"/>
<path d="M6415 3214 c-75 -38 -113 -107 -102 -186 8 -57 38 -128 54 -128 11 0
13 5 8 18 -40 95 -21 176 49 217 79 46 197 24 247 -46 52 -73 14 -188 -66
-203 -45 -9 -41 -28 8 -39 52 -13 62 -6 86 58 38 102 21 194 -49 262 -59 57
-172 80 -235 47z"/>
<path d="M1064 3162 c-10 -27 -20 -31 -168 -68 -154 -38 -158 -38 -172 -20
-24 34 -28 8 -8 -60 19 -65 36 -83 42 -44 3 15 17 24 60 36 31 8 65 18 75 20
29 9 19 -9 -38 -66 -82 -82 -96 -107 -85 -155 5 -22 20 -66 32 -98 23 -58 42
-75 44 -38 2 29 11 38 50 45 45 9 58 -2 80 -67 l17 -51 -38 -33 c-21 -18 -47
-33 -57 -33 -22 0 -22 -3 -1 -62 17 -48 43 -65 43 -28 0 13 52 65 150 151 83
72 150 137 150 145 0 12 -35 14 -201 14 -118 0 -208 4 -220 10 -17 9 -17 14
-6 39 17 41 124 155 132 141 12 -20 84 -50 120 -50 43 0 75 29 75 68 0 34 -46
212 -57 223 -5 5 -13 -4 -19 -19z m24 -104 c18 -18 14 -63 -8 -83 -11 -10 -41
-20 -69 -23 -47 -4 -50 -3 -57 22 -12 49 2 72 48 83 60 15 72 15 86 1z m32
-347 c0 -5 -23 -28 -50 -51 l-50 -42 -19 43 c-11 24 -17 47 -15 51 7 11 134
10 134 -1z"/>
<path d="M6271 2892 c-22 -42 -49 -120 -44 -126 4 -3 14 1 23 9 10 9 25 13 34
9 23 -9 88 -96 79 -105 -5 -3 -42 -11 -83 -17 -57 -8 -76 -8 -82 1 -11 18 -25
-1 -48 -61 -22 -57 -17 -61 32 -33 19 12 73 25 131 32 92 12 98 12 112 -7 29
-38 65 -119 65 -146 0 -16 5 -28 13 -28 10 0 26 32 64 128 7 18 -18 15 -32 -4
-15 -21 -40 -7 -73 39 l-22 32 27 8 c16 4 52 9 81 10 52 2 53 3 73 46 23 52
24 61 4 61 -8 0 -15 -4 -15 -9 0 -11 -49 -27 -110 -36 -25 -3 -57 -8 -72 -11
-24 -5 -31 1 -64 53 -46 73 -74 132 -67 149 8 20 -15 26 -26 6z"/>
<path d="M1270 2564 c0 -29 -7 -35 -134 -102 -136 -73 -163 -81 -184 -60 -28
28 -21 -7 18 -81 46 -89 73 -116 131 -131 46 -13 86 -5 117 24 19 17 23 28 18
57 l-6 36 38 -10 c67 -18 122 10 122 61 0 27 -80 195 -106 222 -12 12 -14 10
-14 -16z m58 -106 c22 -22 14 -68 -17 -99 -40 -40 -75 -39 -101 4 -11 17 -20
38 -20 44 0 14 85 62 111 63 8 0 20 -5 27 -12z m-142 -113 c7 -37 -15 -89 -45
-105 -23 -12 -71 -13 -88 -2 -20 12 -34 61 -24 81 6 10 36 31 68 49 65 34 79
31 89 -23z"/>
<path d="M6088 2450 c-62 -33 -82 -73 -87 -168 -4 -100 13 -132 23 -44 15 132
118 196 231 143 67 -31 115 -96 115 -155 0 -30 -48 -102 -77 -115 -13 -6 -40
-11 -59 -11 -43 0 -41 -17 5 -44 44 -25 67 -13 110 59 60 100 52 206 -21 284
-64 68 -166 90 -240 51z"/>
<path d="M1404 2307 c7 -28 -13 -47 -146 -140 -37 -26 -74 -57 -83 -69 -35
-51 -8 -147 60 -206 55 -49 102 -45 191 15 81 54 155 93 178 93 40 0 28 -33
-35 -96 -84 -86 -175 -147 -206 -139 -15 3 -23 1 -23 -8 0 -13 80 -97 93 -97
4 0 7 13 7 29 0 19 14 46 39 78 52 64 139 148 146 141 4 -3 -10 -95 -29 -205
-20 -109 -36 -201 -36 -205 0 -22 36 3 139 97 63 58 118 105 122 105 4 0 5 -9
2 -20 -6 -24 18 -28 37 -5 24 28 110 8 99 -23 -2 -6 -49 -66 -104 -132 -90
-109 -103 -121 -127 -117 -42 6 -34 -14 22 -58 65 -52 71 -53 64 -16 -7 33
-14 22 120 182 43 52 82 95 86 97 4 2 18 -10 30 -25 21 -27 21 -37 5 -90 -11
-36 19 -28 46 12 13 19 27 35 32 35 4 0 7 7 7 15 0 8 -7 15 -16 15 -18 0 -208
157 -212 176 -2 8 -9 14 -16 14 -7 0 -25 14 -41 30 -16 17 -32 30 -36 30 -4 0
-10 -15 -13 -32 -7 -37 -51 -96 -113 -152 -41 -37 -43 -37 -43 -15 0 13 11 82
25 154 32 165 32 175 -5 210 -17 16 -45 51 -61 77 -28 44 -48 60 -50 41 -4
-45 -27 -78 -86 -125 -102 -82 -163 -105 -214 -78 -29 16 -61 87 -54 120 7 34
24 49 147 134 86 59 99 65 117 54 37 -23 34 1 -6 59 -46 64 -70 81 -59 40z"/>
<path d="M5866 2141 c-25 -33 -46 -62 -46 -66 0 -3 15 -3 33 0 30 6 44 -2 157
-87 112 -83 125 -96 122 -120 -1 -16 1 -28 6 -28 12 0 92 105 92 120 0 13 -17
13 -25 0 -12 -20 -34 -8 -159 86 -112 84 -127 99 -123 120 8 44 -11 35 -57
-25z"/>
<path d="M5901 1875 c-27 -12 -32 -19 -27 -38 3 -12 6 -28 6 -34 0 -15 39 -17
75 -3 22 8 24 14 19 37 -7 29 -22 53 -33 53 -3 -1 -21 -7 -40 -15z"/>
<path d="M5652 1852 c-40 -31 -62 -74 -62 -123 0 -77 52 -110 141 -90 74 17
136 14 159 -9 28 -28 25 -57 -9 -91 -34 -33 -46 -35 -101 -13 -23 9 -44 14
-47 10 -4 -4 12 -25 35 -48 40 -40 42 -41 68 -27 78 41 116 119 95 191 -20 64
-45 73 -162 58 -126 -17 -152 -9 -147 47 4 52 40 71 94 48 51 -21 61 -8 23 31
-37 38 -54 41 -87 16z"/>
<path d="M5495 1689 c-60 -46 -66 -59 -28 -59 23 0 43 -14 86 -57 130 -132
153 -197 89 -254 -36 -32 -71 -44 -106 -35 -26 6 -196 213 -196 238 0 8 5 19
11 25 7 7 7 13 1 17 -5 3 -32 -11 -58 -32 -27 -21 -79 -56 -116 -77 -38 -22
-68 -45 -68 -53 0 -8 7 -11 18 -8 24 8 43 -14 131 -156 64 -104 71 -119 59
-137 -22 -36 0 -34 62 5 65 42 73 54 37 54 -30 0 -40 11 -126 149 -73 117 -83
144 -55 155 38 14 54 3 133 -99 89 -114 125 -140 175 -131 88 17 175 113 162
178 -3 16 -33 66 -66 112 -66 91 -94 148 -85 176 10 32 -9 29 -60 -11z"/>
<path d="M1963 1410 c-16 -7 -23 -18 -23 -37 0 -49 13 -58 59 -44 43 12 48 23
31 65 -10 27 -29 31 -67 16z"/>
<path d="M2248 1400 c-76 -23 -135 -88 -159 -174 -21 -74 36 -175 109 -197 42
-12 180 -9 172 4 -3 5 -28 10 -57 12 -59 4 -77 12 -117 53 -58 62 -42 177 34
246 50 45 97 54 146 30 52 -26 79 -65 77 -114 -2 -53 17 -52 47 2 l23 42 -34
29 c-75 64 -166 90 -241 67z"/>
<path d="M4930 1316 c-36 -19 -69 -32 -73 -29 -5 3 -14 -1 -20 -9 -14 -17
-235 -112 -285 -123 -18 -4 -35 -12 -36 -18 -2 -7 -12 -73 -21 -147 -10 -74
-21 -145 -24 -158 -7 -25 0 -33 -136 153 -32 44 -61 83 -65 88 -8 9 -110 -13
-110 -25 0 -4 6 -8 13 -8 30 -1 39 -22 53 -116 18 -130 18 -205 -1 -230 -29
-39 -11 -44 73 -19 49 15 70 35 37 35 -26 0 -52 57 -69 150 -27 146 -25 146
86 -9 56 -77 107 -141 115 -141 14 0 17 10 33 120 7 41 19 106 27 144 15 66
16 68 28 45 7 -13 27 -68 46 -122 31 -92 32 -100 16 -112 -40 -29 1 -31 96 -5
39 11 50 30 18 30 -22 0 -34 14 -49 55 -5 17 -28 81 -51 143 -40 112 -40 113
-21 132 11 11 30 20 43 20 20 0 30 -17 80 -140 59 -146 65 -168 45 -188 -27
-27 6 -21 99 17 55 23 107 41 116 41 20 0 22 23 6 86 -14 53 -33 53 -35 1 0
-21 -9 -46 -20 -58 -18 -20 -74 -54 -78 -47 -10 14 -56 132 -56 144 0 7 20 23
45 35 60 28 58 43 -5 34 -60 -8 -75 1 -102 64 -22 51 -17 60 40 68 34 5 44 1
67 -21 44 -44 56 -34 30 27 -14 34 -14 36 7 43 27 8 29 5 113 -158 58 -113 66
-134 56 -151 -7 -10 -10 -21 -8 -24 3 -2 50 18 105 46 55 28 105 51 111 51 15
0 14 12 -5 77 -19 65 -37 65 -39 -1 0 -41 -5 -52 -33 -77 -18 -16 -38 -29 -45
-29 -15 0 -157 271 -157 299 0 11 5 23 10 26 12 7 13 25 3 25 -5 -1 -37 -16
-73 -34z"/>
<path d="M2540 1119 c-92 -97 -142 -142 -162 -146 -15 -3 -28 -10 -28 -15 0
-10 97 -58 118 -58 17 0 15 17 -3 24 -22 8 -18 47 10 80 l24 30 58 -25 58 -25
-1 -58 c-1 -33 -7 -61 -13 -66 -16 -9 2 -23 51 -41 45 -15 53 -10 37 25 -10
20 -10 67 0 211 12 172 11 205 -7 205 -4 0 -68 -63 -142 -141z m85 -66 c-3
-18 -10 -33 -14 -33 -16 0 -81 30 -81 37 0 4 21 29 48 56 l47 48 3 -38 c2 -20
1 -52 -3 -70z"/>
<path d="M2810 1170 c0 -6 7 -13 15 -16 22 -9 19 -38 -15 -155 -38 -130 -39
-177 -5 -213 35 -38 85 -56 154 -56 53 0 63 3 86 28 15 16 36 62 52 112 32
107 56 155 89 176 14 9 21 20 17 25 -10 9 -126 40 -131 35 -2 -2 4 -18 13 -35
17 -33 15 -54 -11 -166 -31 -130 -63 -164 -142 -152 -41 7 -92 55 -92 87 0 25
57 236 71 261 5 11 19 19 30 19 39 0 13 22 -46 41 -69 21 -85 23 -85 9z"/>
<path d="M3265 1061 c-44 -18 -75 -59 -75 -97 0 -32 9 -46 70 -107 56 -57 70
-77 70 -102 0 -36 -7 -48 -38 -64 -49 -26 -112 30 -112 99 0 11 -6 20 -14 20
-16 0 -33 -107 -19 -120 15 -13 75 -30 110 -30 82 0 157 81 133 144 -4 12 -37
52 -74 89 -36 38 -66 77 -66 88 0 35 19 59 46 59 41 0 62 -18 75 -60 7 -23 17
-39 23 -37 13 4 29 89 18 98 -27 24 -110 35 -147 20z"/>
<path d="M3587 1023 c-8 -15 -45 -95 -81 -178 -43 -97 -76 -158 -93 -172 -15
-12 -25 -24 -23 -26 3 -3 35 -7 73 -9 50 -3 67 -1 67 9 0 7 -9 13 -20 13 -16
0 -20 7 -20 36 0 63 12 74 84 74 l63 0 16 -56 c9 -30 13 -62 10 -70 -4 -10 2
-14 20 -14 13 0 39 -3 56 -6 34 -7 43 10 15 31 -9 6 -41 95 -73 200 -32 104
-62 190 -69 193 -6 2 -17 -9 -25 -25z m21 -155 l20 -68 -49 0 c-30 0 -49 4
-49 11 0 13 52 131 55 127 2 -2 12 -33 23 -70z"/>
<path d="M3883 1039 c-51 -15 -93 -64 -93 -107 1 -47 10 -59 97 -114 94 -61
111 -93 75 -137 -27 -35 -79 -31 -114 8 -15 17 -28 38 -28 46 0 8 -7 15 -15
15 -11 0 -15 -12 -15 -49 0 -56 10 -68 67 -77 81 -13 173 55 173 128 0 45 -20
71 -83 107 -61 35 -107 76 -107 96 0 27 13 47 36 56 34 12 68 -6 87 -47 9 -19
21 -34 27 -34 11 0 14 96 2 104 -18 11 -80 14 -109 5z"/>
<path d="M4061 873 c-17 -15 -20 -23 -13 -48 8 -27 13 -30 43 -27 46 4 58 19
47 60 -10 37 -42 43 -77 15z"/>
</g>
</svg>
